<mxfile host="app.diagrams.net" modified="2020-11-19T11:25:55.730Z" agent="5.0 (X11)" etag="oVf6aqqMSujRnvjypIiC" version="13.9.9" type="github" pages="3">
  <diagram id="vSsBbyGpL86iU16PmAUu" name="Page-1">
    <mxGraphModel dx="1152" dy="831" grid="1" gridSize="10" guides="1" tooltips="1" connect="1" arrows="1" fold="1" page="1" pageScale="1" pageWidth="827" pageHeight="1169" math="0" shadow="0">
      <root>
        <mxCell id="0" />
        <mxCell id="1" parent="0" />
        <mxCell id="65UklNDtx3qCwvS8nAyI-1" value="RL Agent" style="rounded=1;whiteSpace=wrap;html=1;labelBackgroundColor=none;strokeColor=#99FFFF;opacity=70;labelPosition=center;verticalLabelPosition=top;align=center;verticalAlign=bottom;fillColor=#FF3333;" vertex="1" parent="1">
          <mxGeometry x="180" y="150" width="360" height="357.5" as="geometry" />
        </mxCell>
        <mxCell id="65UklNDtx3qCwvS8nAyI-2" value="PyFly" style="rounded=1;whiteSpace=wrap;html=1;labelBackgroundColor=none;strokeColor=#99FFFF;fillColor=#99FFFF;labelPosition=center;verticalLabelPosition=top;align=center;verticalAlign=bottom;spacingTop=0;opacity=70;" vertex="1" parent="1">
          <mxGeometry x="684" y="150" width="250" height="225" as="geometry" />
        </mxCell>
        <mxCell id="65UklNDtx3qCwvS8nAyI-3" value="Reinforcement Learning Controller" style="rounded=0;whiteSpace=wrap;html=1;" vertex="1" parent="1">
          <mxGeometry x="289" y="232.5" width="150" height="60" as="geometry" />
        </mxCell>
        <mxCell id="65UklNDtx3qCwvS8nAyI-4" value="&lt;div align=&quot;center&quot;&gt;Environment Model&lt;/div&gt;" style="rounded=0;whiteSpace=wrap;html=1;align=center;labelPosition=center;verticalLabelPosition=top;verticalAlign=bottom;fillColor=#99FF33;" vertex="1" parent="1">
          <mxGeometry x="714" y="212.5" width="200" height="100" as="geometry" />
        </mxCell>
        <mxCell id="65UklNDtx3qCwvS8nAyI-5" value="UAV Model " style="rounded=0;whiteSpace=wrap;html=1;fillColor=#99FF33;" vertex="1" parent="1">
          <mxGeometry x="754" y="232.5" width="120" height="60" as="geometry" />
        </mxCell>
        <mxCell id="65UklNDtx3qCwvS8nAyI-6" value="Sensor Model" style="rounded=0;whiteSpace=wrap;html=1;fillColor=#99FF33;" vertex="1" parent="1">
          <mxGeometry x="390" y="417.5" width="120" height="60" as="geometry" />
        </mxCell>
        <mxCell id="65UklNDtx3qCwvS8nAyI-7" value="" style="endArrow=classic;html=1;exitX=1;exitY=0.5;exitDx=0;exitDy=0;entryX=0;entryY=0.5;entryDx=0;entryDy=0;" edge="1" parent="1" source="65UklNDtx3qCwvS8nAyI-3" target="65UklNDtx3qCwvS8nAyI-5">
          <mxGeometry width="50" height="50" relative="1" as="geometry">
            <mxPoint x="400" y="347.5" as="sourcePoint" />
            <mxPoint x="450" y="297.5" as="targetPoint" />
          </mxGeometry>
        </mxCell>
        <mxCell id="65UklNDtx3qCwvS8nAyI-8" value="" style="endArrow=classic;html=1;entryX=0;entryY=0.5;entryDx=0;entryDy=0;exitX=1;exitY=0.5;exitDx=0;exitDy=0;" edge="1" parent="1" source="65UklNDtx3qCwvS8nAyI-9" target="65UklNDtx3qCwvS8nAyI-3">
          <mxGeometry width="50" height="50" relative="1" as="geometry">
            <mxPoint x="90" y="262" as="sourcePoint" />
            <mxPoint x="170" y="262" as="targetPoint" />
          </mxGeometry>
        </mxCell>
        <mxCell id="65UklNDtx3qCwvS8nAyI-9" value="Maneuver or Waypoint" style="text;html=1;strokeColor=none;fillColor=none;align=center;verticalAlign=middle;whiteSpace=wrap;rounded=0;labelBackgroundColor=none;opacity=70;" vertex="1" parent="1">
          <mxGeometry x="60" y="230" width="100" height="65" as="geometry" />
        </mxCell>
        <mxCell id="65UklNDtx3qCwvS8nAyI-10" value="Buffer + Encoder" style="rounded=0;whiteSpace=wrap;html=1;" vertex="1" parent="1">
          <mxGeometry x="240" y="417.5" width="120" height="60" as="geometry" />
        </mxCell>
        <mxCell id="65UklNDtx3qCwvS8nAyI-11" value="" style="endArrow=classic;html=1;exitX=0;exitY=0.5;exitDx=0;exitDy=0;entryX=1;entryY=0.5;entryDx=0;entryDy=0;" edge="1" parent="1" source="65UklNDtx3qCwvS8nAyI-6" target="65UklNDtx3qCwvS8nAyI-10">
          <mxGeometry width="50" height="50" relative="1" as="geometry">
            <mxPoint x="400" y="347.5" as="sourcePoint" />
            <mxPoint x="450" y="297.5" as="targetPoint" />
          </mxGeometry>
        </mxCell>
        <mxCell id="65UklNDtx3qCwvS8nAyI-12" value="" style="endArrow=classic;html=1;exitX=0;exitY=0.5;exitDx=0;exitDy=0;entryX=0.5;entryY=1;entryDx=0;entryDy=0;" edge="1" parent="1" source="65UklNDtx3qCwvS8nAyI-10" target="65UklNDtx3qCwvS8nAyI-3">
          <mxGeometry width="50" height="50" relative="1" as="geometry">
            <mxPoint x="400" y="347.5" as="sourcePoint" />
            <mxPoint x="450" y="297.5" as="targetPoint" />
            <Array as="points">
              <mxPoint x="200" y="447.5" />
              <mxPoint x="200" y="367.5" />
              <mxPoint x="364" y="367.5" />
            </Array>
          </mxGeometry>
        </mxCell>
        <mxCell id="65UklNDtx3qCwvS8nAyI-13" value="Attitude" style="text;html=1;strokeColor=none;fillColor=none;align=center;verticalAlign=middle;whiteSpace=wrap;rounded=0;labelBackgroundColor=none;opacity=70;" vertex="1" parent="1">
          <mxGeometry x="470" y="272.5" width="40" height="20" as="geometry" />
        </mxCell>
        <mxCell id="65UklNDtx3qCwvS8nAyI-14" value="State Vector" style="text;html=1;strokeColor=none;fillColor=none;align=center;verticalAlign=middle;whiteSpace=wrap;rounded=0;labelBackgroundColor=none;opacity=70;" vertex="1" parent="1">
          <mxGeometry x="770" y="380" width="40" height="20" as="geometry" />
        </mxCell>
        <mxCell id="65UklNDtx3qCwvS8nAyI-15" value="" style="endArrow=classic;html=1;exitX=0.5;exitY=1;exitDx=0;exitDy=0;entryX=1;entryY=0.5;entryDx=0;entryDy=0;strokeWidth=1;" edge="1" parent="1" source="65UklNDtx3qCwvS8nAyI-4" target="65UklNDtx3qCwvS8nAyI-6">
          <mxGeometry width="50" height="50" relative="1" as="geometry">
            <mxPoint x="400" y="347.5" as="sourcePoint" />
            <mxPoint x="670" y="447.5" as="targetPoint" />
            <Array as="points">
              <mxPoint x="814" y="448" />
            </Array>
          </mxGeometry>
        </mxCell>
        <mxCell id="65UklNDtx3qCwvS8nAyI-16" value="" style="rounded=0;whiteSpace=wrap;html=1;align=center;labelPosition=center;verticalLabelPosition=top;verticalAlign=bottom;sketch=0;fillColor=#99FF33;" vertex="1" parent="1">
          <mxGeometry x="189" y="532.5" width="60" height="20" as="geometry" />
        </mxCell>
        <mxCell id="65UklNDtx3qCwvS8nAyI-17" value="Subject to Domain randomization" style="text;html=1;align=center;verticalAlign=middle;resizable=0;points=[];autosize=1;" vertex="1" parent="1">
          <mxGeometry x="249" y="532.5" width="190" height="20" as="geometry" />
        </mxCell>
        <mxCell id="65UklNDtx3qCwvS8nAyI-18" value="" style="endArrow=classic;html=1;strokeWidth=1;entryX=0.5;entryY=0;entryDx=0;entryDy=0;" edge="1" parent="1" target="65UklNDtx3qCwvS8nAyI-3">
          <mxGeometry width="50" height="50" relative="1" as="geometry">
            <mxPoint x="520" y="262.5" as="sourcePoint" />
            <mxPoint x="450" y="297.5" as="targetPoint" />
            <Array as="points">
              <mxPoint x="520" y="207.5" />
              <mxPoint x="364" y="207.5" />
            </Array>
          </mxGeometry>
        </mxCell>
        <mxCell id="65UklNDtx3qCwvS8nAyI-19" value="" style="endArrow=classic;html=1;strokeWidth=1;entryX=0.5;entryY=0;entryDx=0;entryDy=0;" edge="1" parent="1" target="65UklNDtx3qCwvS8nAyI-10">
          <mxGeometry width="50" height="50" relative="1" as="geometry">
            <mxPoint x="520" y="257.5" as="sourcePoint" />
            <mxPoint x="450" y="297.5" as="targetPoint" />
            <Array as="points">
              <mxPoint x="520" y="397.5" />
              <mxPoint x="300" y="397.5" />
            </Array>
          </mxGeometry>
        </mxCell>
        <mxCell id="65UklNDtx3qCwvS8nAyI-20" value="z⁻¹" style="text;html=1;align=center;verticalAlign=middle;resizable=0;points=[];autosize=1;" vertex="1" parent="1">
          <mxGeometry x="420" y="187.5" width="30" height="20" as="geometry" />
        </mxCell>
        <mxCell id="65UklNDtx3qCwvS8nAyI-21" value="Latent space" style="text;html=1;align=center;verticalAlign=middle;resizable=0;points=[];autosize=1;" vertex="1" parent="1">
          <mxGeometry x="240" y="349.5" width="80" height="20" as="geometry" />
        </mxCell>
        <mxCell id="65UklNDtx3qCwvS8nAyI-22" value="PID Controller" style="rounded=0;whiteSpace=wrap;html=1;" vertex="1" parent="1">
          <mxGeometry x="564" y="232.5" width="96" height="60" as="geometry" />
        </mxCell>
      </root>
    </mxGraphModel>
  </diagram>
  <diagram id="NLLupR-41t-Ko2myptYz" name="Additional">
    <mxGraphModel dx="1979" dy="831" grid="1" gridSize="10" guides="1" tooltips="1" connect="1" arrows="1" fold="1" page="1" pageScale="1" pageWidth="827" pageHeight="1169" math="0" shadow="0">
      <root>
        <mxCell id="D4b-QVvL7qLMzF1wo6HN-0" />
        <mxCell id="D4b-QVvL7qLMzF1wo6HN-1" parent="D4b-QVvL7qLMzF1wo6HN-0" />
        <mxCell id="cQaq2ZN7SKqvUSlhL3z2-0" value="RL Agent" style="rounded=1;whiteSpace=wrap;html=1;labelBackgroundColor=none;strokeColor=#99FFFF;opacity=70;labelPosition=center;verticalLabelPosition=top;align=center;verticalAlign=bottom;fillColor=#FF3333;" parent="D4b-QVvL7qLMzF1wo6HN-1" vertex="1">
          <mxGeometry x="166" y="70" width="360" height="357.5" as="geometry" />
        </mxCell>
        <mxCell id="cQaq2ZN7SKqvUSlhL3z2-1" value="PyFly" style="rounded=1;whiteSpace=wrap;html=1;labelBackgroundColor=none;strokeColor=#99FFFF;fillColor=#99FFFF;labelPosition=center;verticalLabelPosition=top;align=center;verticalAlign=bottom;spacingTop=0;opacity=70;" parent="D4b-QVvL7qLMzF1wo6HN-1" vertex="1">
          <mxGeometry x="670" y="70" width="250" height="225" as="geometry" />
        </mxCell>
        <mxCell id="cQaq2ZN7SKqvUSlhL3z2-2" value="Reinforcement Learning Controller" style="rounded=0;whiteSpace=wrap;html=1;" parent="D4b-QVvL7qLMzF1wo6HN-1" vertex="1">
          <mxGeometry x="275" y="152.5" width="150" height="60" as="geometry" />
        </mxCell>
        <mxCell id="cQaq2ZN7SKqvUSlhL3z2-3" value="&lt;div align=&quot;center&quot;&gt;Environment Model&lt;/div&gt;" style="rounded=0;whiteSpace=wrap;html=1;align=center;labelPosition=center;verticalLabelPosition=top;verticalAlign=bottom;fillColor=#99FF33;" parent="D4b-QVvL7qLMzF1wo6HN-1" vertex="1">
          <mxGeometry x="700" y="132.5" width="200" height="100" as="geometry" />
        </mxCell>
        <mxCell id="cQaq2ZN7SKqvUSlhL3z2-4" value="UAV Model " style="rounded=0;whiteSpace=wrap;html=1;fillColor=#99FF33;" parent="D4b-QVvL7qLMzF1wo6HN-1" vertex="1">
          <mxGeometry x="740" y="152.5" width="120" height="60" as="geometry" />
        </mxCell>
        <mxCell id="cQaq2ZN7SKqvUSlhL3z2-5" value="Sensor Model" style="rounded=0;whiteSpace=wrap;html=1;fillColor=#99FF33;" parent="D4b-QVvL7qLMzF1wo6HN-1" vertex="1">
          <mxGeometry x="376" y="337.5" width="120" height="60" as="geometry" />
        </mxCell>
        <mxCell id="cQaq2ZN7SKqvUSlhL3z2-6" value="" style="endArrow=classic;html=1;exitX=1;exitY=0.5;exitDx=0;exitDy=0;entryX=0;entryY=0.5;entryDx=0;entryDy=0;" parent="D4b-QVvL7qLMzF1wo6HN-1" source="cQaq2ZN7SKqvUSlhL3z2-2" target="cQaq2ZN7SKqvUSlhL3z2-4" edge="1">
          <mxGeometry width="50" height="50" relative="1" as="geometry">
            <mxPoint x="386" y="267.5" as="sourcePoint" />
            <mxPoint x="436" y="217.5" as="targetPoint" />
          </mxGeometry>
        </mxCell>
        <mxCell id="cQaq2ZN7SKqvUSlhL3z2-7" value="" style="endArrow=classic;html=1;entryX=0;entryY=0.5;entryDx=0;entryDy=0;exitX=1;exitY=0.5;exitDx=0;exitDy=0;" parent="D4b-QVvL7qLMzF1wo6HN-1" source="cQaq2ZN7SKqvUSlhL3z2-8" target="cQaq2ZN7SKqvUSlhL3z2-2" edge="1">
          <mxGeometry width="50" height="50" relative="1" as="geometry">
            <mxPoint x="76" y="182" as="sourcePoint" />
            <mxPoint x="156" y="182" as="targetPoint" />
          </mxGeometry>
        </mxCell>
        <mxCell id="cQaq2ZN7SKqvUSlhL3z2-8" value="Maneuver or Waypoint" style="text;html=1;strokeColor=none;fillColor=none;align=center;verticalAlign=middle;whiteSpace=wrap;rounded=0;labelBackgroundColor=none;opacity=70;" parent="D4b-QVvL7qLMzF1wo6HN-1" vertex="1">
          <mxGeometry x="46" y="150" width="100" height="65" as="geometry" />
        </mxCell>
        <mxCell id="cQaq2ZN7SKqvUSlhL3z2-9" value="Buffer + Encoder" style="rounded=0;whiteSpace=wrap;html=1;" parent="D4b-QVvL7qLMzF1wo6HN-1" vertex="1">
          <mxGeometry x="226" y="337.5" width="120" height="60" as="geometry" />
        </mxCell>
        <mxCell id="cQaq2ZN7SKqvUSlhL3z2-10" value="" style="endArrow=classic;html=1;exitX=0;exitY=0.5;exitDx=0;exitDy=0;entryX=1;entryY=0.5;entryDx=0;entryDy=0;" parent="D4b-QVvL7qLMzF1wo6HN-1" source="cQaq2ZN7SKqvUSlhL3z2-5" target="cQaq2ZN7SKqvUSlhL3z2-9" edge="1">
          <mxGeometry width="50" height="50" relative="1" as="geometry">
            <mxPoint x="386" y="267.5" as="sourcePoint" />
            <mxPoint x="436" y="217.5" as="targetPoint" />
          </mxGeometry>
        </mxCell>
        <mxCell id="cQaq2ZN7SKqvUSlhL3z2-11" value="" style="endArrow=classic;html=1;exitX=0;exitY=0.5;exitDx=0;exitDy=0;entryX=0.5;entryY=1;entryDx=0;entryDy=0;" parent="D4b-QVvL7qLMzF1wo6HN-1" source="cQaq2ZN7SKqvUSlhL3z2-9" target="cQaq2ZN7SKqvUSlhL3z2-2" edge="1">
          <mxGeometry width="50" height="50" relative="1" as="geometry">
            <mxPoint x="386" y="267.5" as="sourcePoint" />
            <mxPoint x="436" y="217.5" as="targetPoint" />
            <Array as="points">
              <mxPoint x="186" y="367.5" />
              <mxPoint x="186" y="287.5" />
              <mxPoint x="350" y="287.5" />
            </Array>
          </mxGeometry>
        </mxCell>
        <mxCell id="cQaq2ZN7SKqvUSlhL3z2-12" value="Gain(t)" style="text;html=1;strokeColor=none;fillColor=none;align=center;verticalAlign=middle;whiteSpace=wrap;rounded=0;labelBackgroundColor=none;opacity=70;" parent="D4b-QVvL7qLMzF1wo6HN-1" vertex="1">
          <mxGeometry x="456" y="192.5" width="40" height="20" as="geometry" />
        </mxCell>
        <mxCell id="cQaq2ZN7SKqvUSlhL3z2-13" value="State Vector" style="text;html=1;strokeColor=none;fillColor=none;align=center;verticalAlign=middle;whiteSpace=wrap;rounded=0;labelBackgroundColor=none;opacity=70;" parent="D4b-QVvL7qLMzF1wo6HN-1" vertex="1">
          <mxGeometry x="756" y="300" width="40" height="20" as="geometry" />
        </mxCell>
        <mxCell id="cQaq2ZN7SKqvUSlhL3z2-14" value="" style="endArrow=classic;html=1;exitX=0.5;exitY=1;exitDx=0;exitDy=0;entryX=1;entryY=0.5;entryDx=0;entryDy=0;strokeWidth=1;" parent="D4b-QVvL7qLMzF1wo6HN-1" source="cQaq2ZN7SKqvUSlhL3z2-3" target="cQaq2ZN7SKqvUSlhL3z2-5" edge="1">
          <mxGeometry width="50" height="50" relative="1" as="geometry">
            <mxPoint x="386" y="267.5" as="sourcePoint" />
            <mxPoint x="656" y="367.5" as="targetPoint" />
            <Array as="points">
              <mxPoint x="800" y="368" />
            </Array>
          </mxGeometry>
        </mxCell>
        <mxCell id="cQaq2ZN7SKqvUSlhL3z2-15" value="" style="rounded=0;whiteSpace=wrap;html=1;align=center;labelPosition=center;verticalLabelPosition=top;verticalAlign=bottom;sketch=0;fillColor=#99FF33;" parent="D4b-QVvL7qLMzF1wo6HN-1" vertex="1">
          <mxGeometry x="175" y="452.5" width="60" height="20" as="geometry" />
        </mxCell>
        <mxCell id="cQaq2ZN7SKqvUSlhL3z2-16" value="Subject to Domain randomization" style="text;html=1;align=center;verticalAlign=middle;resizable=0;points=[];autosize=1;" parent="D4b-QVvL7qLMzF1wo6HN-1" vertex="1">
          <mxGeometry x="235" y="452.5" width="190" height="20" as="geometry" />
        </mxCell>
        <mxCell id="cQaq2ZN7SKqvUSlhL3z2-17" value="" style="endArrow=classic;html=1;strokeWidth=1;entryX=0.5;entryY=0;entryDx=0;entryDy=0;" parent="D4b-QVvL7qLMzF1wo6HN-1" target="cQaq2ZN7SKqvUSlhL3z2-2" edge="1">
          <mxGeometry width="50" height="50" relative="1" as="geometry">
            <mxPoint x="506" y="182.5" as="sourcePoint" />
            <mxPoint x="436" y="217.5" as="targetPoint" />
            <Array as="points">
              <mxPoint x="506" y="127.5" />
              <mxPoint x="350" y="127.5" />
            </Array>
          </mxGeometry>
        </mxCell>
        <mxCell id="cQaq2ZN7SKqvUSlhL3z2-18" value="" style="endArrow=classic;html=1;strokeWidth=1;entryX=0.5;entryY=0;entryDx=0;entryDy=0;" parent="D4b-QVvL7qLMzF1wo6HN-1" target="cQaq2ZN7SKqvUSlhL3z2-9" edge="1">
          <mxGeometry width="50" height="50" relative="1" as="geometry">
            <mxPoint x="506" y="177.5" as="sourcePoint" />
            <mxPoint x="436" y="217.5" as="targetPoint" />
            <Array as="points">
              <mxPoint x="506" y="317.5" />
              <mxPoint x="286" y="317.5" />
            </Array>
          </mxGeometry>
        </mxCell>
        <mxCell id="cQaq2ZN7SKqvUSlhL3z2-19" value="z⁻¹" style="text;html=1;align=center;verticalAlign=middle;resizable=0;points=[];autosize=1;" parent="D4b-QVvL7qLMzF1wo6HN-1" vertex="1">
          <mxGeometry x="406" y="107.5" width="30" height="20" as="geometry" />
        </mxCell>
        <mxCell id="cQaq2ZN7SKqvUSlhL3z2-20" value="Latent space" style="text;html=1;align=center;verticalAlign=middle;resizable=0;points=[];autosize=1;" parent="D4b-QVvL7qLMzF1wo6HN-1" vertex="1">
          <mxGeometry x="226" y="269.5" width="80" height="20" as="geometry" />
        </mxCell>
        <mxCell id="cQaq2ZN7SKqvUSlhL3z2-21" value="RL Agent" style="rounded=1;whiteSpace=wrap;html=1;labelBackgroundColor=none;strokeColor=#99FFFF;opacity=70;labelPosition=center;verticalLabelPosition=top;align=center;verticalAlign=bottom;fillColor=#FF3333;" parent="D4b-QVvL7qLMzF1wo6HN-1" vertex="1">
          <mxGeometry x="166" y="580" width="360" height="357.5" as="geometry" />
        </mxCell>
        <mxCell id="cQaq2ZN7SKqvUSlhL3z2-22" value="PyFly" style="rounded=1;whiteSpace=wrap;html=1;labelBackgroundColor=none;strokeColor=#99FFFF;fillColor=#99FFFF;labelPosition=center;verticalLabelPosition=top;align=center;verticalAlign=bottom;spacingTop=0;opacity=70;" parent="D4b-QVvL7qLMzF1wo6HN-1" vertex="1">
          <mxGeometry x="531" y="580" width="250" height="225" as="geometry" />
        </mxCell>
        <mxCell id="cQaq2ZN7SKqvUSlhL3z2-23" value="Reinforcement Learning Controller" style="rounded=0;whiteSpace=wrap;html=1;" parent="D4b-QVvL7qLMzF1wo6HN-1" vertex="1">
          <mxGeometry x="275" y="662.5" width="150" height="60" as="geometry" />
        </mxCell>
        <mxCell id="cQaq2ZN7SKqvUSlhL3z2-24" value="&lt;div align=&quot;center&quot;&gt;Environment Model&lt;/div&gt;" style="rounded=0;whiteSpace=wrap;html=1;align=center;labelPosition=center;verticalLabelPosition=top;verticalAlign=bottom;fillColor=#99FF33;" parent="D4b-QVvL7qLMzF1wo6HN-1" vertex="1">
          <mxGeometry x="556" y="642.5" width="200" height="100" as="geometry" />
        </mxCell>
        <mxCell id="cQaq2ZN7SKqvUSlhL3z2-25" value="UAV Model " style="rounded=0;whiteSpace=wrap;html=1;fillColor=#99FF33;" parent="D4b-QVvL7qLMzF1wo6HN-1" vertex="1">
          <mxGeometry x="596" y="662.5" width="120" height="60" as="geometry" />
        </mxCell>
        <mxCell id="cQaq2ZN7SKqvUSlhL3z2-26" value="Sensor Model" style="rounded=0;whiteSpace=wrap;html=1;fillColor=#99FF33;" parent="D4b-QVvL7qLMzF1wo6HN-1" vertex="1">
          <mxGeometry x="376" y="847.5" width="120" height="60" as="geometry" />
        </mxCell>
        <mxCell id="cQaq2ZN7SKqvUSlhL3z2-27" value="" style="endArrow=classic;html=1;exitX=1;exitY=0.5;exitDx=0;exitDy=0;entryX=0;entryY=0.5;entryDx=0;entryDy=0;" parent="D4b-QVvL7qLMzF1wo6HN-1" source="cQaq2ZN7SKqvUSlhL3z2-23" target="cQaq2ZN7SKqvUSlhL3z2-25" edge="1">
          <mxGeometry width="50" height="50" relative="1" as="geometry">
            <mxPoint x="386" y="777.5" as="sourcePoint" />
            <mxPoint x="436" y="727.5" as="targetPoint" />
          </mxGeometry>
        </mxCell>
        <mxCell id="cQaq2ZN7SKqvUSlhL3z2-28" value="" style="endArrow=classic;html=1;entryX=0;entryY=0.5;entryDx=0;entryDy=0;exitX=1;exitY=0.5;exitDx=0;exitDy=0;" parent="D4b-QVvL7qLMzF1wo6HN-1" source="cQaq2ZN7SKqvUSlhL3z2-29" target="cQaq2ZN7SKqvUSlhL3z2-23" edge="1">
          <mxGeometry width="50" height="50" relative="1" as="geometry">
            <mxPoint x="76" y="692" as="sourcePoint" />
            <mxPoint x="156" y="692" as="targetPoint" />
          </mxGeometry>
        </mxCell>
        <mxCell id="cQaq2ZN7SKqvUSlhL3z2-29" value="Maneuver or Waypoint" style="text;html=1;strokeColor=none;fillColor=none;align=center;verticalAlign=middle;whiteSpace=wrap;rounded=0;labelBackgroundColor=none;opacity=70;" parent="D4b-QVvL7qLMzF1wo6HN-1" vertex="1">
          <mxGeometry x="46" y="660" width="100" height="65" as="geometry" />
        </mxCell>
        <mxCell id="cQaq2ZN7SKqvUSlhL3z2-30" value="Buffer + Encoder" style="rounded=0;whiteSpace=wrap;html=1;" parent="D4b-QVvL7qLMzF1wo6HN-1" vertex="1">
          <mxGeometry x="226" y="847.5" width="120" height="60" as="geometry" />
        </mxCell>
        <mxCell id="cQaq2ZN7SKqvUSlhL3z2-31" value="" style="endArrow=classic;html=1;exitX=0;exitY=0.5;exitDx=0;exitDy=0;entryX=1;entryY=0.5;entryDx=0;entryDy=0;" parent="D4b-QVvL7qLMzF1wo6HN-1" source="cQaq2ZN7SKqvUSlhL3z2-26" target="cQaq2ZN7SKqvUSlhL3z2-30" edge="1">
          <mxGeometry width="50" height="50" relative="1" as="geometry">
            <mxPoint x="386" y="777.5" as="sourcePoint" />
            <mxPoint x="436" y="727.5" as="targetPoint" />
          </mxGeometry>
        </mxCell>
        <mxCell id="cQaq2ZN7SKqvUSlhL3z2-32" value="" style="endArrow=classic;html=1;exitX=0;exitY=0.5;exitDx=0;exitDy=0;entryX=0.5;entryY=1;entryDx=0;entryDy=0;" parent="D4b-QVvL7qLMzF1wo6HN-1" source="cQaq2ZN7SKqvUSlhL3z2-30" target="cQaq2ZN7SKqvUSlhL3z2-23" edge="1">
          <mxGeometry width="50" height="50" relative="1" as="geometry">
            <mxPoint x="386" y="777.5" as="sourcePoint" />
            <mxPoint x="436" y="727.5" as="targetPoint" />
            <Array as="points">
              <mxPoint x="186" y="877.5" />
              <mxPoint x="186" y="797.5" />
              <mxPoint x="350" y="797.5" />
            </Array>
          </mxGeometry>
        </mxCell>
        <mxCell id="cQaq2ZN7SKqvUSlhL3z2-33" value="Action Vector" style="text;html=1;strokeColor=none;fillColor=none;align=center;verticalAlign=middle;whiteSpace=wrap;rounded=0;labelBackgroundColor=none;opacity=70;" parent="D4b-QVvL7qLMzF1wo6HN-1" vertex="1">
          <mxGeometry x="456" y="702.5" width="40" height="20" as="geometry" />
        </mxCell>
        <mxCell id="cQaq2ZN7SKqvUSlhL3z2-34" value="State Vector" style="text;html=1;strokeColor=none;fillColor=none;align=center;verticalAlign=middle;whiteSpace=wrap;rounded=0;labelBackgroundColor=none;opacity=70;" parent="D4b-QVvL7qLMzF1wo6HN-1" vertex="1">
          <mxGeometry x="616" y="797.5" width="40" height="20" as="geometry" />
        </mxCell>
        <mxCell id="cQaq2ZN7SKqvUSlhL3z2-35" value="" style="endArrow=classic;html=1;exitX=0.5;exitY=1;exitDx=0;exitDy=0;entryX=1;entryY=0.5;entryDx=0;entryDy=0;strokeWidth=1;" parent="D4b-QVvL7qLMzF1wo6HN-1" source="cQaq2ZN7SKqvUSlhL3z2-24" target="cQaq2ZN7SKqvUSlhL3z2-26" edge="1">
          <mxGeometry width="50" height="50" relative="1" as="geometry">
            <mxPoint x="386" y="777.5" as="sourcePoint" />
            <mxPoint x="656" y="877.5" as="targetPoint" />
            <Array as="points">
              <mxPoint x="656" y="877.5" />
            </Array>
          </mxGeometry>
        </mxCell>
        <mxCell id="cQaq2ZN7SKqvUSlhL3z2-36" value="" style="rounded=0;whiteSpace=wrap;html=1;align=center;labelPosition=center;verticalLabelPosition=top;verticalAlign=bottom;sketch=0;fillColor=#99FF33;" parent="D4b-QVvL7qLMzF1wo6HN-1" vertex="1">
          <mxGeometry x="186" y="1030" width="60" height="20" as="geometry" />
        </mxCell>
        <mxCell id="cQaq2ZN7SKqvUSlhL3z2-37" value="Subject to Domain randomization" style="text;html=1;align=center;verticalAlign=middle;resizable=0;points=[];autosize=1;" parent="D4b-QVvL7qLMzF1wo6HN-1" vertex="1">
          <mxGeometry x="246" y="1030" width="190" height="20" as="geometry" />
        </mxCell>
        <mxCell id="cQaq2ZN7SKqvUSlhL3z2-38" value="" style="endArrow=classic;html=1;strokeWidth=1;entryX=0.5;entryY=0;entryDx=0;entryDy=0;" parent="D4b-QVvL7qLMzF1wo6HN-1" target="cQaq2ZN7SKqvUSlhL3z2-23" edge="1">
          <mxGeometry width="50" height="50" relative="1" as="geometry">
            <mxPoint x="506" y="692.5" as="sourcePoint" />
            <mxPoint x="436" y="727.5" as="targetPoint" />
            <Array as="points">
              <mxPoint x="506" y="637.5" />
              <mxPoint x="350" y="637.5" />
            </Array>
          </mxGeometry>
        </mxCell>
        <mxCell id="cQaq2ZN7SKqvUSlhL3z2-39" value="" style="endArrow=classic;html=1;strokeWidth=1;entryX=0.5;entryY=0;entryDx=0;entryDy=0;" parent="D4b-QVvL7qLMzF1wo6HN-1" target="cQaq2ZN7SKqvUSlhL3z2-30" edge="1">
          <mxGeometry width="50" height="50" relative="1" as="geometry">
            <mxPoint x="506" y="687.5" as="sourcePoint" />
            <mxPoint x="436" y="727.5" as="targetPoint" />
            <Array as="points">
              <mxPoint x="506" y="827.5" />
              <mxPoint x="286" y="827.5" />
            </Array>
          </mxGeometry>
        </mxCell>
        <mxCell id="cQaq2ZN7SKqvUSlhL3z2-40" value="z⁻¹" style="text;html=1;align=center;verticalAlign=middle;resizable=0;points=[];autosize=1;" parent="D4b-QVvL7qLMzF1wo6HN-1" vertex="1">
          <mxGeometry x="406" y="617.5" width="30" height="20" as="geometry" />
        </mxCell>
        <mxCell id="cQaq2ZN7SKqvUSlhL3z2-41" value="Latent space" style="text;html=1;align=center;verticalAlign=middle;resizable=0;points=[];autosize=1;" parent="D4b-QVvL7qLMzF1wo6HN-1" vertex="1">
          <mxGeometry x="226" y="779.5" width="80" height="20" as="geometry" />
        </mxCell>
        <mxCell id="cQaq2ZN7SKqvUSlhL3z2-42" value="Decoder" style="rounded=0;whiteSpace=wrap;html=1;" parent="D4b-QVvL7qLMzF1wo6HN-1" vertex="1">
          <mxGeometry x="10" y="847.5" width="120" height="60" as="geometry" />
        </mxCell>
        <mxCell id="cQaq2ZN7SKqvUSlhL3z2-43" value="" style="endArrow=classic;html=1;strokeWidth=1;exitX=0;exitY=0.5;exitDx=0;exitDy=0;entryX=1;entryY=0.5;entryDx=0;entryDy=0;" parent="D4b-QVvL7qLMzF1wo6HN-1" source="cQaq2ZN7SKqvUSlhL3z2-30" target="cQaq2ZN7SKqvUSlhL3z2-42" edge="1">
          <mxGeometry width="50" height="50" relative="1" as="geometry">
            <mxPoint x="210" y="770" as="sourcePoint" />
            <mxPoint x="260" y="720" as="targetPoint" />
          </mxGeometry>
        </mxCell>
        <mxCell id="cQaq2ZN7SKqvUSlhL3z2-44" value="" style="endArrow=classic;html=1;strokeWidth=1;exitX=0;exitY=0.5;exitDx=0;exitDy=0;entryX=0;entryY=0.5;entryDx=0;entryDy=0;" parent="D4b-QVvL7qLMzF1wo6HN-1" source="cQaq2ZN7SKqvUSlhL3z2-42" target="cQaq2ZN7SKqvUSlhL3z2-48" edge="1">
          <mxGeometry width="50" height="50" relative="1" as="geometry">
            <mxPoint x="340" y="740" as="sourcePoint" />
            <mxPoint x="-90" y="878" as="targetPoint" />
            <Array as="points">
              <mxPoint x="-30" y="878" />
              <mxPoint x="-30" y="980" />
            </Array>
          </mxGeometry>
        </mxCell>
        <mxCell id="cQaq2ZN7SKqvUSlhL3z2-45" value="PID Controller" style="rounded=0;whiteSpace=wrap;html=1;" parent="D4b-QVvL7qLMzF1wo6HN-1" vertex="1">
          <mxGeometry x="550" y="152.5" width="96" height="60" as="geometry" />
        </mxCell>
        <mxCell id="cQaq2ZN7SKqvUSlhL3z2-47" value="State Vector" style="text;html=1;strokeColor=none;fillColor=none;align=center;verticalAlign=middle;whiteSpace=wrap;rounded=0;labelBackgroundColor=none;opacity=70;" parent="D4b-QVvL7qLMzF1wo6HN-1" vertex="1">
          <mxGeometry x="-60" y="847.5" width="40" height="20" as="geometry" />
        </mxCell>
        <mxCell id="cQaq2ZN7SKqvUSlhL3z2-48" value="&lt;i&gt;&lt;b&gt;&lt;font style=&quot;font-size: 16px&quot; face=&quot;Lucida Console&quot;&gt;L&lt;sub&gt;reconstr&lt;/sub&gt;&lt;/font&gt;&lt;/b&gt;&lt;/i&gt;" style="shape=process;whiteSpace=wrap;html=1;backgroundOutline=1;labelBackgroundColor=none;sketch=0;fillColor=#FFFFFF;" parent="D4b-QVvL7qLMzF1wo6HN-1" vertex="1">
          <mxGeometry x="286" y="950" width="120" height="60" as="geometry" />
        </mxCell>
        <mxCell id="cQaq2ZN7SKqvUSlhL3z2-49" value="" style="endArrow=classic;html=1;strokeWidth=1;exitX=0.5;exitY=1;exitDx=0;exitDy=0;entryX=1;entryY=0.5;entryDx=0;entryDy=0;" parent="D4b-QVvL7qLMzF1wo6HN-1" source="cQaq2ZN7SKqvUSlhL3z2-24" target="cQaq2ZN7SKqvUSlhL3z2-48" edge="1">
          <mxGeometry width="50" height="50" relative="1" as="geometry">
            <mxPoint x="360" y="870" as="sourcePoint" />
            <mxPoint x="410" y="820" as="targetPoint" />
            <Array as="points">
              <mxPoint x="656" y="980" />
            </Array>
          </mxGeometry>
        </mxCell>
      </root>
    </mxGraphModel>
  </diagram>
  <diagram id="CO9vCoT_M0_UXLI4huH2" name="Page-3">
    <mxGraphModel dx="1920" dy="1385" grid="1" gridSize="10" guides="1" tooltips="1" connect="1" arrows="1" fold="1" page="1" pageScale="1" pageWidth="827" pageHeight="1169" math="0" shadow="0">
      <root>
        <mxCell id="KusEbAgomEbsq9QIMuh8-0" />
        <mxCell id="KusEbAgomEbsq9QIMuh8-1" parent="KusEbAgomEbsq9QIMuh8-0" />
        <mxCell id="5eedbdoIoF5A4zBGEQ5v-0" value="RL Agent" style="rounded=1;whiteSpace=wrap;html=1;labelBackgroundColor=none;strokeColor=#99FFFF;opacity=70;labelPosition=center;verticalLabelPosition=top;align=center;verticalAlign=bottom;fillColor=#FF3333;" vertex="1" parent="KusEbAgomEbsq9QIMuh8-1">
          <mxGeometry x="620" y="840" width="360" height="357.5" as="geometry" />
        </mxCell>
        <mxCell id="5eedbdoIoF5A4zBGEQ5v-1" value="PyFly" style="rounded=1;whiteSpace=wrap;html=1;labelBackgroundColor=none;strokeColor=#99FFFF;fillColor=#99FFFF;labelPosition=center;verticalLabelPosition=top;align=center;verticalAlign=bottom;spacingTop=0;opacity=70;" vertex="1" parent="KusEbAgomEbsq9QIMuh8-1">
          <mxGeometry x="985" y="840" width="250" height="225" as="geometry" />
        </mxCell>
        <mxCell id="5eedbdoIoF5A4zBGEQ5v-2" value="Reinforcement Learning Controller" style="rounded=0;whiteSpace=wrap;html=1;" vertex="1" parent="KusEbAgomEbsq9QIMuh8-1">
          <mxGeometry x="729" y="922.5" width="150" height="60" as="geometry" />
        </mxCell>
        <mxCell id="5eedbdoIoF5A4zBGEQ5v-3" value="&lt;div align=&quot;center&quot;&gt;Environment Model&lt;/div&gt;" style="rounded=0;whiteSpace=wrap;html=1;align=center;labelPosition=center;verticalLabelPosition=top;verticalAlign=bottom;fillColor=#99FF33;" vertex="1" parent="KusEbAgomEbsq9QIMuh8-1">
          <mxGeometry x="1010" y="902.5" width="200" height="100" as="geometry" />
        </mxCell>
        <mxCell id="5eedbdoIoF5A4zBGEQ5v-4" value="UAV Model " style="rounded=0;whiteSpace=wrap;html=1;fillColor=#99FF33;" vertex="1" parent="KusEbAgomEbsq9QIMuh8-1">
          <mxGeometry x="1050" y="922.5" width="120" height="60" as="geometry" />
        </mxCell>
        <mxCell id="5eedbdoIoF5A4zBGEQ5v-5" value="Sensor Model" style="rounded=0;whiteSpace=wrap;html=1;fillColor=#99FF33;" vertex="1" parent="KusEbAgomEbsq9QIMuh8-1">
          <mxGeometry x="830" y="1107.5" width="120" height="60" as="geometry" />
        </mxCell>
        <mxCell id="5eedbdoIoF5A4zBGEQ5v-6" value="" style="endArrow=classic;html=1;exitX=1;exitY=0.5;exitDx=0;exitDy=0;entryX=0;entryY=0.5;entryDx=0;entryDy=0;" edge="1" parent="KusEbAgomEbsq9QIMuh8-1" source="5eedbdoIoF5A4zBGEQ5v-2" target="5eedbdoIoF5A4zBGEQ5v-4">
          <mxGeometry width="50" height="50" relative="1" as="geometry">
            <mxPoint x="840" y="1037.5" as="sourcePoint" />
            <mxPoint x="890" y="987.5" as="targetPoint" />
          </mxGeometry>
        </mxCell>
        <mxCell id="5eedbdoIoF5A4zBGEQ5v-7" value="" style="endArrow=classic;html=1;entryX=0;entryY=0.5;entryDx=0;entryDy=0;exitX=1;exitY=0.5;exitDx=0;exitDy=0;" edge="1" parent="KusEbAgomEbsq9QIMuh8-1" source="5eedbdoIoF5A4zBGEQ5v-8" target="5eedbdoIoF5A4zBGEQ5v-2">
          <mxGeometry width="50" height="50" relative="1" as="geometry">
            <mxPoint x="530" y="952" as="sourcePoint" />
            <mxPoint x="610" y="952" as="targetPoint" />
          </mxGeometry>
        </mxCell>
        <mxCell id="5eedbdoIoF5A4zBGEQ5v-8" value="Maneuver or Waypoint" style="text;html=1;strokeColor=none;fillColor=none;align=center;verticalAlign=middle;whiteSpace=wrap;rounded=0;labelBackgroundColor=none;opacity=70;" vertex="1" parent="KusEbAgomEbsq9QIMuh8-1">
          <mxGeometry x="500" y="920" width="100" height="65" as="geometry" />
        </mxCell>
        <mxCell id="5eedbdoIoF5A4zBGEQ5v-9" value="Buffer + Encoder" style="rounded=0;whiteSpace=wrap;html=1;" vertex="1" parent="KusEbAgomEbsq9QIMuh8-1">
          <mxGeometry x="680" y="1107.5" width="120" height="60" as="geometry" />
        </mxCell>
        <mxCell id="5eedbdoIoF5A4zBGEQ5v-10" value="" style="endArrow=classic;html=1;exitX=0;exitY=0.5;exitDx=0;exitDy=0;entryX=1;entryY=0.5;entryDx=0;entryDy=0;" edge="1" parent="KusEbAgomEbsq9QIMuh8-1" source="5eedbdoIoF5A4zBGEQ5v-5" target="5eedbdoIoF5A4zBGEQ5v-9">
          <mxGeometry width="50" height="50" relative="1" as="geometry">
            <mxPoint x="840" y="1037.5" as="sourcePoint" />
            <mxPoint x="890" y="987.5" as="targetPoint" />
          </mxGeometry>
        </mxCell>
        <mxCell id="5eedbdoIoF5A4zBGEQ5v-11" value="" style="endArrow=classic;html=1;exitX=0;exitY=0.5;exitDx=0;exitDy=0;entryX=0.5;entryY=1;entryDx=0;entryDy=0;" edge="1" parent="KusEbAgomEbsq9QIMuh8-1" source="5eedbdoIoF5A4zBGEQ5v-9" target="5eedbdoIoF5A4zBGEQ5v-2">
          <mxGeometry width="50" height="50" relative="1" as="geometry">
            <mxPoint x="840" y="1037.5" as="sourcePoint" />
            <mxPoint x="890" y="987.5" as="targetPoint" />
            <Array as="points">
              <mxPoint x="640" y="1137.5" />
              <mxPoint x="640" y="1057.5" />
              <mxPoint x="804" y="1057.5" />
            </Array>
          </mxGeometry>
        </mxCell>
        <mxCell id="5eedbdoIoF5A4zBGEQ5v-12" value="Action Vector" style="text;html=1;strokeColor=none;fillColor=none;align=center;verticalAlign=middle;whiteSpace=wrap;rounded=0;labelBackgroundColor=none;opacity=70;" vertex="1" parent="KusEbAgomEbsq9QIMuh8-1">
          <mxGeometry x="910" y="962.5" width="40" height="20" as="geometry" />
        </mxCell>
        <mxCell id="5eedbdoIoF5A4zBGEQ5v-13" value="State Vector" style="text;html=1;strokeColor=none;fillColor=none;align=center;verticalAlign=middle;whiteSpace=wrap;rounded=0;labelBackgroundColor=none;opacity=70;" vertex="1" parent="KusEbAgomEbsq9QIMuh8-1">
          <mxGeometry x="1070" y="1057.5" width="40" height="20" as="geometry" />
        </mxCell>
        <mxCell id="5eedbdoIoF5A4zBGEQ5v-14" value="" style="endArrow=classic;html=1;exitX=0.5;exitY=1;exitDx=0;exitDy=0;entryX=1;entryY=0.5;entryDx=0;entryDy=0;strokeWidth=1;" edge="1" parent="KusEbAgomEbsq9QIMuh8-1" source="5eedbdoIoF5A4zBGEQ5v-3" target="5eedbdoIoF5A4zBGEQ5v-5">
          <mxGeometry width="50" height="50" relative="1" as="geometry">
            <mxPoint x="840" y="1037.5" as="sourcePoint" />
            <mxPoint x="1110" y="1137.5" as="targetPoint" />
            <Array as="points">
              <mxPoint x="1110" y="1137.5" />
            </Array>
          </mxGeometry>
        </mxCell>
        <mxCell id="5eedbdoIoF5A4zBGEQ5v-15" value="" style="rounded=0;whiteSpace=wrap;html=1;align=center;labelPosition=center;verticalLabelPosition=top;verticalAlign=bottom;sketch=0;fillColor=#99FF33;" vertex="1" parent="KusEbAgomEbsq9QIMuh8-1">
          <mxGeometry x="629" y="1222.5" width="60" height="20" as="geometry" />
        </mxCell>
        <mxCell id="5eedbdoIoF5A4zBGEQ5v-16" value="Subject to Domain randomization" style="text;html=1;align=center;verticalAlign=middle;resizable=0;points=[];autosize=1;" vertex="1" parent="KusEbAgomEbsq9QIMuh8-1">
          <mxGeometry x="689" y="1222.5" width="190" height="20" as="geometry" />
        </mxCell>
        <mxCell id="5eedbdoIoF5A4zBGEQ5v-17" value="" style="endArrow=classic;html=1;strokeWidth=1;entryX=0.5;entryY=0;entryDx=0;entryDy=0;" edge="1" parent="KusEbAgomEbsq9QIMuh8-1" target="5eedbdoIoF5A4zBGEQ5v-2">
          <mxGeometry width="50" height="50" relative="1" as="geometry">
            <mxPoint x="960" y="952.5" as="sourcePoint" />
            <mxPoint x="890" y="987.5" as="targetPoint" />
            <Array as="points">
              <mxPoint x="960" y="897.5" />
              <mxPoint x="804" y="897.5" />
            </Array>
          </mxGeometry>
        </mxCell>
        <mxCell id="5eedbdoIoF5A4zBGEQ5v-18" value="" style="endArrow=classic;html=1;strokeWidth=1;entryX=0.5;entryY=0;entryDx=0;entryDy=0;" edge="1" parent="KusEbAgomEbsq9QIMuh8-1" target="5eedbdoIoF5A4zBGEQ5v-9">
          <mxGeometry width="50" height="50" relative="1" as="geometry">
            <mxPoint x="960" y="947.5" as="sourcePoint" />
            <mxPoint x="890" y="987.5" as="targetPoint" />
            <Array as="points">
              <mxPoint x="960" y="1087.5" />
              <mxPoint x="740" y="1087.5" />
            </Array>
          </mxGeometry>
        </mxCell>
        <mxCell id="5eedbdoIoF5A4zBGEQ5v-19" value="z⁻¹" style="text;html=1;align=center;verticalAlign=middle;resizable=0;points=[];autosize=1;" vertex="1" parent="KusEbAgomEbsq9QIMuh8-1">
          <mxGeometry x="860" y="877.5" width="30" height="20" as="geometry" />
        </mxCell>
        <mxCell id="5eedbdoIoF5A4zBGEQ5v-20" value="Latent space" style="text;html=1;align=center;verticalAlign=middle;resizable=0;points=[];autosize=1;" vertex="1" parent="KusEbAgomEbsq9QIMuh8-1">
          <mxGeometry x="680" y="1039.5" width="80" height="20" as="geometry" />
        </mxCell>
      </root>
    </mxGraphModel>
  </diagram>
</mxfile>
